<svg width="46" height="72" viewBox="0 0 46 72" fill="none" xmlns="http://www.w3.org/2000/svg">
<path d="M20.6374 49.8327C16.8144 49.8327 13.7186 46.6179 14.1989 42.8251C14.3385 41.7232 14.5014 40.7378 14.6864 40.0965C15.4076 37.677 16.4545 35.7228 17.8271 34.2338C19.1997 32.7449 20.8515 31.3956 22.7825 30.1858C24.2249 29.2552 25.5161 28.2897 26.656 27.2894C27.796 26.289 28.7033 25.1839 29.378 23.9742C30.0526 22.7411 30.39 21.3685 30.39 19.8563C30.39 18.2511 30.0061 16.8436 29.2384 15.6338C28.4707 14.424 27.4354 13.4935 26.1326 12.8421C24.853 12.1906 23.4339 11.8649 21.8751 11.8649C20.3629 11.8649 18.9322 12.2023 17.5828 12.8769C16.2335 13.5284 15.1284 14.5055 14.2676 15.8083C14.2452 15.8416 14.2231 15.8751 14.2012 15.9089C12.7058 18.2154 10.6952 20.5892 7.9463 20.5892C2.84125 20.5892 -1.60113 16.1703 0.559771 11.5451C0.969467 10.6682 1.44418 9.84425 1.98392 9.07319C4.101 6.02553 6.90438 3.75723 10.3941 2.2683C13.8838 0.756099 17.7341 0 21.9449 0C26.5746 0 30.6692 0.767731 34.2286 2.30319C37.7881 3.81539 40.5799 6.0139 42.6039 8.89871C44.6279 11.7835 45.6399 15.2616 45.6399 19.3329C45.6399 22.0548 45.1863 24.4743 44.2789 26.5914C43.3949 28.6852 42.1502 30.5464 40.545 32.1749C38.9397 33.7802 37.0437 35.2342 34.8568 36.537C33.0189 37.6305 31.5067 38.7704 30.3202 39.9569C29.157 41.1434 28.2845 42.516 27.7029 44.0748C26.5933 47.1724 24.2864 49.8327 20.9959 49.8327H20.6374ZM20.5142 71.2475C18.1877 71.2475 16.1986 70.4332 14.5468 68.8047C12.9183 67.1529 12.1157 65.1754 12.1389 62.8722C12.1157 60.5923 12.9183 58.6381 14.5468 57.0095C16.1986 55.381 18.1877 54.5668 20.5142 54.5668C22.7243 54.5668 24.6669 55.381 26.3419 57.0095C28.017 58.6381 28.8662 60.5923 28.8894 62.8722C28.8662 64.4077 28.459 65.8152 27.668 67.0947C26.9003 68.351 25.8883 69.363 24.632 70.1308C23.3757 70.8752 22.0031 71.2475 20.5142 71.2475Z" fill="#FFBE16"/>
</svg>
